<svg xmlns="http://www.w3.org/2000/svg" height="512" width="512" viewBox="0 0 25 25" role="img"><path fill="#ffffff" d="M0,0 h25v25H0z" shape-rendering="crispEdges"></path><path fill="#101727" d="M0 0h7v1H0zM9 0h3v1H9zM14 0h1v1H14zM18,0 h7v1H18zM0 1h1v1H0zM6 1h1v1H6zM10 1h4v1H10zM15 1h2v1H15zM18 1h1v1H18zM24,1 h1v1H24zM0 2h1v1H0zM2 2h3v1H2zM6 2h1v1H6zM8 2h3v1H8zM12 2h1v1H12zM14 2h1v1H14zM18 2h1v1H18zM20 2h3v1H20zM24,2 h1v1H24zM0 3h1v1H0zM2 3h3v1H2zM6 3h1v1H6zM8 3h2v1H8zM13 3h1v1H13zM15 3h2v1H15zM18 3h1v1H18zM20 3h3v1H20zM24,3 h1v1H24zM0 4h1v1H0zM2 4h3v1H2zM6 4h1v1H6zM8 4h2v1H8zM11 4h1v1H11zM14 4h1v1H14zM18 4h1v1H18zM20 4h3v1H20zM24,4 h1v1H24zM0 5h1v1H0zM6 5h1v1H6zM8 5h2v1H8zM12 5h4v1H12zM18 5h1v1H18zM24,5 h1v1H24zM0 6h7v1H0zM8 6h1v1H8zM10 6h1v1H10zM12 6h1v1H12zM14 6h1v1H14zM16 6h1v1H16zM18,6 h7v1H18zM8 7h5v1H8zM14 7h1v1H14zM0 8h1v1H0zM2 8h5v1H2zM9 8h1v1H9zM13 8h1v1H13zM15 8h2v1H15zM18 8h5v1H18zM0 9h5v1H0zM9 9h1v1H9zM14 9h1v1H14zM19 9h1v1H19zM23 9h1v1H23zM0 10h2v1H0zM5 10h2v1H5zM8 10h1v1H8zM10 10h1v1H10zM12 10h1v1H12zM15 10h2v1H15zM18 10h4v1H18zM23,10 h2v1H23zM0 11h1v1H0zM2 11h4v1H2zM8 11h2v1H8zM11 11h2v1H11zM15 11h1v1H15zM17 11h3v1H17zM24,11 h1v1H24zM0 12h5v1H0zM6 12h1v1H6zM10 12h4v1H10zM16 12h1v1H16zM18 12h3v1H18zM22,12 h3v1H22zM0 13h2v1H0zM4 13h2v1H4zM8 13h1v1H8zM10 13h1v1H10zM12 13h1v1H12zM14 13h1v1H14zM19 13h1v1H19zM21 13h1v1H21zM23 13h1v1H23zM0 14h1v1H0zM2 14h2v1H2zM5 14h2v1H5zM8 14h1v1H8zM10 14h1v1H10zM12 14h2v1H12zM15 14h3v1H15zM19 14h3v1H19zM23,14 h2v1H23zM0 15h1v1H0zM11 15h1v1H11zM16 15h1v1H16zM19 15h2v1H19zM24,15 h1v1H24zM0 16h1v1H0zM2 16h6v1H2zM13 16h1v1H13zM16 16h5v1H16zM22 16h1v1H22zM8 17h1v1H8zM11 17h6v1H11zM20 17h2v1H20zM0 18h7v1H0zM10 18h1v1H10zM12 18h1v1H12zM16 18h1v1H16zM18 18h1v1H18zM20 18h1v1H20zM22,18 h3v1H22zM0 19h1v1H0zM6 19h1v1H6zM8 19h1v1H8zM12 19h1v1H12zM14 19h3v1H14zM20 19h2v1H20zM0 20h1v1H0zM2 20h3v1H2zM6 20h1v1H6zM8 20h2v1H8zM11 20h1v1H11zM13 20h1v1H13zM15 20h6v1H15zM22 20h1v1H22zM0 21h1v1H0zM2 21h3v1H2zM6 21h1v1H6zM8 21h1v1H8zM11 21h2v1H11zM14 21h1v1H14zM17 21h2v1H17zM20,21 h5v1H20zM0 22h1v1H0zM2 22h3v1H2zM6 22h1v1H6zM8 22h1v1H8zM13 22h1v1H13zM21 22h2v1H21zM24,22 h1v1H24zM0 23h1v1H0zM6 23h1v1H6zM11 23h1v1H11zM15 23h3v1H15zM19 23h3v1H19zM24,23 h1v1H24zM0 24h7v1H0zM8 24h1v1H8zM10 24h1v1H10zM13 24h1v1H13zM17,24 h8v1H17z" shape-rendering="crispEdges"></path></svg>